# This file uses centimeters as units for non-parametric coordinates.

mtllib colectable.mtl
g default
v 0.951057 0.309017 -0.150415
v 0.809018 0.587786 -0.150415
v 0.587786 0.809017 -0.150415
v 0.309017 0.951057 -0.150415
v 0.000000 1.000000 -0.150415
v -0.309017 0.951057 -0.150415
v -0.587785 0.809017 -0.150415
v -0.809017 0.587785 -0.150415
v -0.951057 0.309017 -0.150415
v -1.000000 0.000000 -0.150415
v -0.951057 -0.309017 -0.150415
v -0.809017 -0.587785 -0.150415
v -0.587785 -0.809017 -0.150415
v -0.309017 -0.951057 -0.150415
v -0.000000 -1.000000 -0.150415
v 0.309017 -0.951057 -0.150415
v 0.587785 -0.809017 -0.150415
v 0.809017 -0.587785 -0.150415
v 0.951057 -0.309017 -0.150415
v 1.000000 0.000000 -0.150415
v 0.951057 0.309017 0.150415
v 0.809018 0.587786 0.150415
v 0.587786 0.809017 0.150415
v 0.309017 0.951057 0.150415
v 0.000000 1.000000 0.150415
v -0.309017 0.951057 0.150415
v -0.587785 0.809017 0.150415
v -0.809017 0.587785 0.150415
v -0.951057 0.309017 0.150415
v -1.000000 0.000000 0.150415
v -0.951057 -0.309017 0.150415
v -0.809017 -0.587785 0.150415
v -0.587785 -0.809017 0.150415
v -0.309017 -0.951057 0.150415
v -0.000000 -1.000000 0.150415
v 0.309017 -0.951057 0.150415
v 0.587785 -0.809017 0.150415
v 0.809017 -0.587785 0.150415
v 0.951057 -0.309017 0.150415
v 1.000000 0.000000 0.150415
v 0.000000 0.000000 -0.150415
v 0.000000 0.000000 0.150415
vt 0.702838 0.154428
vt 0.671248 0.092078
vt 0.621874 0.042565
vt 0.559744 0.010908
vt 0.490871 0.000000
vt 0.421999 0.010908
vt 0.359868 0.042565
vt 0.310561 0.091873
vt 0.278904 0.154003
vt 0.267996 0.222876
vt 0.278904 0.291748
vt 0.310561 0.353879
vt 0.359868 0.403186
vt 0.421999 0.434843
vt 0.490871 0.445751
vt 0.559744 0.434843
vt 0.621874 0.403186
vt 0.671181 0.353879
vt 0.702772 0.291953
vt 0.713747 0.223301
vt 0.013012 0.000002
vt 0.056523 0.000002
vt 0.112559 0.041470
vt 0.164205 0.103295
vt 0.212196 0.178838
vt 0.257096 0.261665
vt 0.299679 0.346244
vt 0.340942 0.426856
vt 0.381733 0.499041
vt 0.422966 0.561366
vt 0.464363 0.612796
vt 0.506567 0.654173
vt 0.550177 0.684968
vt 0.596276 0.704856
vt 0.643060 0.712087
vt 0.690542 0.706002
vt 0.740422 0.688325
vt 0.793843 0.663264
vt 0.849541 0.634669
vt 0.906040 0.604169
vt 0.963473 0.572777
vt 0.000000 0.030076
vt 0.031483 0.043575
vt 0.064873 0.084018
vt 0.099950 0.144762
vt 0.137284 0.219693
vt 0.177568 0.303066
vt 0.221087 0.388401
vt 0.267689 0.469502
vt 0.317096 0.542811
vt 0.367981 0.605586
vt 0.419426 0.657858
vt 0.471060 0.700279
vt 0.525113 0.733480
vt 0.582633 0.755209
vt 0.642114 0.763217
vt 0.700832 0.757578
vt 0.759569 0.741417
vt 0.818790 0.717811
vt 0.877409 0.689625
vt 0.935336 0.659355
vt 0.993354 0.628358
vt 0.434843 0.708677
vt 0.403253 0.646327
vt 0.353879 0.596814
vt 0.291748 0.565157
vt 0.222876 0.554249
vt 0.154003 0.565157
vt 0.091873 0.596814
vt 0.042565 0.646122
vt 0.010908 0.708252
vt 0.000000 0.777124
vt 0.010908 0.845997
vt 0.042565 0.908127
vt 0.091873 0.957435
vt 0.154003 0.989092
vt 0.222876 1.000000
vt 0.291748 0.989092
vt 0.353879 0.957435
vt 0.403186 0.908128
vt 0.434776 0.846202
vt 0.445751 0.777550
vt 0.490871 0.222928
vt 0.222876 0.777177
vn 0.951057 0.309016 0.000000
vn 0.809017 0.587785 0.000000
vn 0.809017 0.587785 0.000000
vn 0.951057 0.309016 0.000000
vn 0.587785 0.809017 0.000000
vn 0.587785 0.809017 0.000000
vn 0.309017 0.951057 0.000000
vn 0.309017 0.951057 0.000000
vn -0.000000 1.000000 0.000000
vn -0.000000 1.000000 0.000000
vn -0.309017 0.951056 0.000000
vn -0.309017 0.951056 0.000000
vn -0.587785 0.809017 0.000000
vn -0.587785 0.809017 0.000000
vn -0.809017 0.587785 0.000000
vn -0.809017 0.587785 0.000000
vn -0.951057 0.309017 0.000000
vn -0.951057 0.309017 0.000000
vn -1.000000 0.000000 0.000000
vn -1.000000 0.000000 0.000000
vn -0.951057 -0.309017 0.000000
vn -0.951057 -0.309017 0.000000
vn -0.809017 -0.587785 0.000000
vn -0.809017 -0.587785 0.000000
vn -0.587785 -0.809017 0.000000
vn -0.587785 -0.809017 0.000000
vn -0.309017 -0.951057 0.000000
vn -0.309017 -0.951057 0.000000
vn 0.000000 -1.000000 0.000000
vn 0.000000 -1.000000 0.000000
vn 0.309017 -0.951057 0.000000
vn 0.309017 -0.951057 0.000000
vn 0.587785 -0.809017 0.000000
vn 0.587785 -0.809017 0.000000
vn 0.809017 -0.587785 0.000000
vn 0.809017 -0.587785 0.000000
vn 0.951057 -0.309017 0.000000
vn 0.951057 -0.309017 0.000000
vn 1.000000 -0.000001 0.000000
vn 1.000000 -0.000001 0.000000
vn 0.000000 -0.000000 -1.000000
vn 0.000000 -0.000000 -1.000000
vn 0.000000 -0.000000 -1.000000
vn 0.000000 -0.000000 -1.000000
vn 0.000000 -0.000000 -1.000000
vn 0.000000 -0.000000 -1.000000
vn 0.000000 -0.000000 -1.000000
vn 0.000000 -0.000000 -1.000000
vn 0.000000 -0.000000 -1.000000
vn 0.000000 -0.000000 -1.000000
vn 0.000000 -0.000000 -1.000000
vn 0.000000 -0.000000 -1.000000
vn 0.000000 -0.000000 -1.000000
vn 0.000000 -0.000000 -1.000000
vn 0.000000 -0.000000 -1.000000
vn 0.000000 -0.000000 -1.000000
vn 0.000000 -0.000000 -1.000000
vn 0.000000 -0.000000 -1.000000
vn 0.000000 -0.000000 -1.000000
vn 0.000000 -0.000000 -1.000000
vn 0.000000 -0.000000 -1.000000
vn 0.000000 0.000000 1.000000
vn 0.000000 0.000000 1.000000
vn 0.000000 0.000000 1.000000
vn 0.000000 0.000000 1.000000
vn 0.000000 0.000000 1.000000
vn 0.000000 0.000000 1.000000
vn 0.000000 0.000000 1.000000
vn 0.000000 0.000000 1.000000
vn 0.000000 0.000000 1.000000
vn 0.000000 0.000000 1.000000
vn 0.000000 0.000000 1.000000
vn 0.000000 0.000000 1.000000
vn 0.000000 0.000000 1.000000
vn 0.000000 0.000000 1.000000
vn 0.000000 0.000000 1.000000
vn 0.000000 0.000000 1.000000
vn 0.000000 0.000000 1.000000
vn 0.000000 0.000000 1.000000
vn 0.000000 0.000000 1.000000
vn 0.000000 0.000000 1.000000
vn 0.000000 0.000000 1.000000
s 1
g pCylinder1
usemtl initialShadingGroup
f 1/21/1 2/22/2 22/43/3 21/42/4
f 2/22/2 3/23/5 23/44/6 22/43/3
f 3/23/5 4/24/7 24/45/8 23/44/6
f 4/24/7 5/25/9 25/46/10 24/45/8
f 5/25/9 6/26/11 26/47/12 25/46/10
f 6/26/11 7/27/13 27/48/14 26/47/12
f 7/27/13 8/28/15 28/49/16 27/48/14
f 8/28/15 9/29/17 29/50/18 28/49/16
f 9/29/17 10/30/19 30/51/20 29/50/18
f 10/30/19 11/31/21 31/52/22 30/51/20
f 11/31/21 12/32/23 32/53/24 31/52/22
f 12/32/23 13/33/25 33/54/26 32/53/24
f 13/33/25 14/34/27 34/55/28 33/54/26
f 14/34/27 15/35/29 35/56/30 34/55/28
f 15/35/29 16/36/31 36/57/32 35/56/30
f 16/36/31 17/37/33 37/58/34 36/57/32
f 17/37/33 18/38/35 38/59/36 37/58/34
f 18/38/35 19/39/37 39/60/38 38/59/36
f 19/39/37 20/40/39 40/61/40 39/60/38
f 20/40/39 1/41/1 21/62/4 40/61/40
s 2
f 2/2/41 1/1/42 41/83/43
f 3/3/44 2/2/41 41/83/43
f 4/4/45 3/3/44 41/83/43
f 5/5/46 4/4/45 41/83/43
f 6/6/47 5/5/46 41/83/43
f 7/7/48 6/6/47 41/83/43
f 8/8/49 7/7/48 41/83/43
f 9/9/50 8/8/49 41/83/43
f 10/10/51 9/9/50 41/83/43
f 11/11/52 10/10/51 41/83/43
f 12/12/53 11/11/52 41/83/43
f 13/13/54 12/12/53 41/83/43
f 14/14/55 13/13/54 41/83/43
f 15/15/56 14/14/55 41/83/43
f 16/16/57 15/15/56 41/83/43
f 17/17/58 16/16/57 41/83/43
f 18/18/59 17/17/58 41/83/43
f 19/19/60 18/18/59 41/83/43
f 20/20/61 19/19/60 41/83/43
f 1/1/42 20/20/61 41/83/43
s 3
f 21/81/62 22/80/63 42/84/64
f 22/80/63 23/79/65 42/84/64
f 23/79/65 24/78/66 42/84/64
f 24/78/66 25/77/67 42/84/64
f 25/77/67 26/76/68 42/84/64
f 26/76/68 27/75/69 42/84/64
f 27/75/69 28/74/70 42/84/64
f 28/74/70 29/73/71 42/84/64
f 29/73/71 30/72/72 42/84/64
f 30/72/72 31/71/73 42/84/64
f 31/71/73 32/70/74 42/84/64
f 32/70/74 33/69/75 42/84/64
f 33/69/75 34/68/76 42/84/64
f 34/68/76 35/67/77 42/84/64
f 35/67/77 36/66/78 42/84/64
f 36/66/78 37/65/79 42/84/64
f 37/65/79 38/64/80 42/84/64
f 38/64/80 39/63/81 42/84/64
f 39/63/81 40/82/82 42/84/64
f 40/82/82 21/81/62 42/84/64
